<svg width="auto" height="auto" viewBox="0 0 407 177" fill="none" xmlns="http://www.w3.org/2000/svg">
<path d="M97.868 126.109C92.5291 126.109 87.8472 124.836 83.8224 122.289C79.8798 119.743 76.7996 116.17 74.5819 111.57C72.4463 106.889 71.3785 101.385 71.3785 95.0606C71.3785 88.6538 72.4463 83.1506 74.5819 78.5508C76.7996 73.869 79.8798 70.296 83.8224 67.8318C87.8472 65.2855 92.5291 64.0124 97.868 64.0124C103.289 64.0124 107.93 65.3677 111.79 68.0782C115.651 70.7888 118.238 74.4439 119.553 79.0437H118.197V42.3279C118.197 40.6851 118.608 39.4531 119.429 38.6317C120.333 37.7282 121.606 37.2764 123.249 37.2764C124.809 37.2764 126 37.7282 126.822 38.6317C127.725 39.4531 128.177 40.6851 128.177 42.3279V120.688C128.177 122.331 127.766 123.604 126.945 124.507C126.124 125.411 124.892 125.862 123.249 125.862C121.688 125.862 120.456 125.411 119.553 124.507C118.731 123.604 118.32 122.331 118.32 120.688V108.983L119.676 110.708C118.362 115.39 115.733 119.127 111.79 121.92C107.93 124.713 103.289 126.109 97.868 126.109ZM99.9626 118.1C103.659 118.1 106.903 117.197 109.696 115.39C112.489 113.583 114.624 110.954 116.103 107.505C117.663 104.055 118.444 99.9068 118.444 95.0606C118.444 87.586 116.76 81.8774 113.392 77.9348C110.107 73.9922 105.63 72.0209 99.9626 72.0209C96.1842 72.0209 92.8987 72.9244 90.106 74.7314C87.3954 76.4563 85.2598 79.0437 83.6992 82.4935C82.2207 85.8611 81.4815 90.0502 81.4815 95.0606C81.4815 102.453 83.1653 108.162 86.533 112.186C89.9006 116.129 94.3772 118.1 99.9626 118.1ZM160.705 126.109C155.859 126.109 151.834 125.246 148.63 123.522C145.509 121.714 143.127 119.045 141.484 115.513C139.924 111.981 139.143 107.587 139.143 102.33V69.3103C139.143 67.5854 139.554 66.3123 140.376 65.4909C141.279 64.6695 142.511 64.2588 144.072 64.2588C145.715 64.2588 146.947 64.6695 147.768 65.4909C148.671 66.3123 149.123 67.5854 149.123 69.3103V102.207C149.123 107.463 150.191 111.406 152.327 114.035C154.544 116.581 157.994 117.854 162.676 117.854C167.769 117.854 171.917 116.129 175.12 112.679C178.323 109.229 179.925 104.712 179.925 99.1265V69.3103C179.925 67.5854 180.336 66.3123 181.157 65.4909C182.061 64.6695 183.334 64.2588 184.977 64.2588C186.537 64.2588 187.728 64.6695 188.55 65.4909C189.453 66.3123 189.905 67.5854 189.905 69.3103V120.688C189.905 124.138 188.303 125.862 185.1 125.862C183.539 125.862 182.307 125.411 181.404 124.507C180.582 123.604 180.171 122.331 180.171 120.688V109.476L181.773 111.201C180.13 116.047 177.42 119.743 173.641 122.289C169.945 124.836 165.633 126.109 160.705 126.109ZM219.419 126.109C213.505 126.109 208.987 124.302 205.866 120.688C202.745 117.074 201.184 111.899 201.184 105.164V42.3279C201.184 40.6851 201.595 39.4531 202.416 38.6317C203.238 37.7282 204.47 37.2764 206.112 37.2764C207.673 37.2764 208.905 37.7282 209.809 38.6317C210.712 39.4531 211.164 40.6851 211.164 42.3279V104.424C211.164 108.86 212.026 112.186 213.751 114.404C215.558 116.54 218.187 117.608 221.637 117.608C222.376 117.608 223.033 117.566 223.608 117.484C224.183 117.402 224.758 117.361 225.333 117.361C226.236 117.279 226.852 117.484 227.181 117.977C227.592 118.47 227.797 119.456 227.797 120.934C227.797 122.413 227.468 123.522 226.811 124.261C226.154 125 225.086 125.493 223.608 125.739C222.951 125.821 222.253 125.904 221.513 125.986C220.774 126.068 220.076 126.109 219.419 126.109Z" fill="#29272B"/>
<path d="M377.22 126.109C370.896 126.109 365.433 124.877 360.834 122.413C356.316 119.866 352.784 116.293 350.238 111.694C347.774 107.094 346.542 101.591 346.542 95.1838C346.542 88.9413 347.774 83.5202 350.238 78.9205C352.702 74.2386 356.07 70.5834 360.341 67.955C364.694 65.3266 369.705 64.0124 375.372 64.0124C379.397 64.0124 383.011 64.7106 386.214 66.1069C389.418 67.4211 392.128 69.3514 394.346 71.8976C396.646 74.4439 398.371 77.5241 399.521 81.1382C400.753 84.7523 401.369 88.8181 401.369 93.3357C401.369 94.6499 400.999 95.6356 400.26 96.2927C399.521 96.8677 398.453 97.1551 397.057 97.1551H354.18V90.6252H394.716L392.744 92.2269C392.744 87.7914 392.087 84.0541 390.773 81.015C389.459 77.8937 387.529 75.5117 384.982 73.869C382.518 72.2262 379.397 71.4048 375.618 71.4048C371.429 71.4048 367.856 72.3905 364.899 74.3618C362.025 76.251 359.848 78.9205 358.369 82.3703C356.891 85.7379 356.152 89.6806 356.152 94.1982V94.9374C356.152 102.494 357.959 108.244 361.573 112.186C365.269 116.129 370.485 118.1 377.22 118.1C380.013 118.1 382.765 117.731 385.475 116.992C388.268 116.252 390.978 115.02 393.607 113.295C394.757 112.556 395.783 112.228 396.687 112.31C397.673 112.31 398.453 112.597 399.028 113.172C399.603 113.665 399.972 114.322 400.137 115.143C400.383 115.883 400.301 116.704 399.89 117.608C399.562 118.511 398.864 119.291 397.796 119.949C395.085 121.92 391.882 123.439 388.186 124.507C384.489 125.575 380.834 126.109 377.22 126.109Z" fill="#29272B"/>
<path d="M242.308 61.6035L242.308 119.1" stroke="#29272B" stroke-width="10.2673" stroke-linecap="round"/>
<path d="M16.2634 133.214C14.4563 133.214 13.06 132.762 12.0743 131.858C11.1708 130.873 10.719 129.476 10.719 127.669V51.8968C10.719 50.0898 11.1708 48.7345 12.0743 47.831C13.06 46.8453 14.4563 46.3525 16.2634 46.3525H62.0965C63.4928 46.3525 64.5606 46.7221 65.2999 47.4613C66.0391 48.2006 66.4087 49.2273 66.4087 50.5415C66.4087 51.9379 66.0391 53.0057 65.2999 53.7449C64.5606 54.4841 63.4928 54.8538 62.0965 54.8538H20.5756V84.9164H59.5091C60.9055 84.9164 61.9733 85.286 62.7125 86.0252C63.4518 86.6823 63.8214 87.7091 63.8214 89.1054C63.8214 90.5018 63.4518 91.5696 62.7125 92.3088C61.9733 93.048 60.9055 93.4177 59.5091 93.4177H20.5756V124.712H62.0965C63.4928 124.712 64.5606 125.082 65.2999 125.821C66.0391 126.56 66.4087 127.587 66.4087 128.901C66.4087 130.298 66.0391 131.366 65.2999 132.105C64.5606 132.844 63.4928 133.214 62.0965 133.214H16.2634Z" fill="#CCADB2"/>
<circle cx="10.2673" cy="10.2673" r="9.24055" transform="matrix(1 0 0 -1 232.041 53.3896)" stroke="#BB5353" stroke-width="2.05346"/>
<circle cx="242.309" cy="43.1228" r="6.16037" fill="#BB5353"/>
<path d="M303.911 123.062C303.689 123.062 303.466 123.014 303.26 122.915L271.487 107.785C270.961 107.534 270.625 107.003 270.625 106.419V59.5159C270.625 58.997 270.891 58.5143 271.33 58.2359C271.767 57.959 272.32 57.9273 272.789 58.1497L303.911 72.9695L335.033 58.1482C335.502 57.9273 336.052 57.9575 336.49 58.2359C336.931 58.5143 337.197 58.997 337.197 59.5159V106.419C337.197 107.003 336.861 107.534 336.335 107.785L304.562 122.915C304.356 123.014 304.133 123.062 303.911 123.062ZM273.651 105.463L303.911 119.873L334.171 105.463V61.9125L304.562 76.0122C304.152 76.2073 303.672 76.2073 303.262 76.0122L273.651 61.9125V105.463Z" fill="#29272B"/>
<path d="M303.911 68.8279L277.535 56.2685C276.78 55.9084 276.46 55.0051 276.819 54.2517C277.179 53.4967 278.081 53.1805 278.836 53.5345L303.911 65.4766L328.986 53.5345C329.742 53.1805 330.642 53.4967 331.003 54.2517C331.361 55.0051 331.042 55.9084 330.287 56.2685L303.911 68.8279Z" fill="#CCADB2"/>
<path d="M305.424 74.6455H302.398V121.549H305.424V74.6455Z" fill="#29272B"/>
</svg>
