<svg width="210" height="26" viewBox="0 0 210 26" fill="none" xmlns="http://www.w3.org/2000/svg">
<g clip-path="url(#clip0_1430_6340)">
<path fill-rule="evenodd" clip-rule="evenodd" d="M9.35166 25.3691C14.0546 19.7192 23.2046 12.7345 36.6031 12.0785H36.6449C18.3815 11.9786 4.78189 20.4239 0.000610352 25.3691H9.35166Z" fill="#083358"/>
<path fill-rule="evenodd" clip-rule="evenodd" d="M19.366 25.369C21.7632 21.1208 27.931 12.5628 36.6449 12.0759C24.5599 12.6678 15.295 19.071 10.3649 25.369H19.366Z" fill="#083358"/>
<path fill-rule="evenodd" clip-rule="evenodd" d="M10.4511 17.5849L10.9498 16.7368L16.0836 8.00969L19.4417 13.7159L19.6089 13.9977C20.9589 13.598 22.3246 13.247 23.7034 12.9446C26.2729 12.3809 28.879 11.9889 31.5033 11.7737C29.1662 11.7071 26.1606 11.8762 23.4057 12.4347L23.1158 11.9402L16.0836 0L8.62053 12.6833L4.03771 20.4701L3.13159 22.01C5.37992 20.3368 7.8502 18.8763 10.3518 17.631C10.3858 17.6157 10.4171 17.5977 10.4511 17.5824" fill="#FC3C3C"/>
<path fill-rule="evenodd" clip-rule="evenodd" d="M23.8705 21.2465L26.2964 25.3692H31.0098L26.628 17.9232C28.8137 15.6607 31.4354 13.7749 34.4645 12.8806C31.3858 13.5699 28.6466 15.2712 26.3094 17.3774C25.6227 17.9975 24.9698 18.6509 24.3536 19.3247C24.0246 19.686 23.7034 20.0524 23.39 20.4291L23.5467 20.693L23.8705 21.2439V21.2465Z" fill="#FC3C3C"/>
</g>
<g clip-path="url(#clip1_1430_6340)">
<path d="M153.797 8.88158L146.774 20.8569H141.346L150.812 4.22827H156.829L166.319 20.8569H160.867L153.797 8.88158Z" fill="#083358"/>
<path d="M156.357 16.8918H150.993V20.833H156.357V16.8918Z" fill="#FC3C3C"/>
<path d="M91.4238 8.88158L84.3973 20.8569H78.9692L88.4394 4.22827H94.4523L103.942 20.8569H98.4903L91.4238 8.88158Z" fill="#083358"/>
<path d="M93.9836 16.8918H88.6196V20.833H93.9836V16.8918Z" fill="#FC3C3C"/>
<path d="M191.373 8.45356V4.51245H209.997V8.45356H191.373ZM196.488 21.1411H191.373V10.9463H209.997V14.5513H196.733V17.156H209.997V21.1171L196.488 21.1411Z" fill="#083358"/>
<path d="M59.8367 8.42955H47.1858V11.2984H59.1036V15.1794H47.1858V20.569H42.2825V4.51245H59.8367V8.42555V8.42955Z" fill="#083358"/>
<path d="M66.7189 16.6879H77.4189V20.569H61.8076V4.51245H66.7189V16.6879Z" fill="#083358"/>
<path d="M112.68 20.569H107.776V8.44956H101.05V4.51245H119.402V8.44956H112.676V20.569H112.68Z" fill="#083358"/>
<path d="M129.697 16.6879H140.397V20.569H124.786V4.51245H129.697V16.6879Z" fill="#083358"/>
<path d="M188.913 20.569H181.722L172.08 8.88968V20.569H167.177V4.51245H174.444L184.018 16.2878V4.51245H188.909V20.569H188.913Z" fill="#083358"/>
</g>
<defs>
<clipPath id="clip0_1430_6340">
<rect width="36.6443" height="25.3691" fill="white" transform="translate(0.000610352)"/>
</clipPath>
<clipPath id="clip1_1430_6340">
<rect width="167.718" height="16.9128" fill="white" transform="translate(42.2825 4.22827)"/>
</clipPath>
</defs>
</svg>
